# Blender v2.78 (sub 0) OBJ File: 'fireBlastMerged.blend'
# www.blender.org
mtllib fireBlastMerged.mtl
o Cube.002_Cube.005
v -5.000000 0.000000 5.000000
v -5.000000 2.000000 5.000000
v -1.000000 0.000000 1.000000
v -1.000000 2.000000 1.000000
v -3.000000 0.000000 5.000000
v -3.000000 2.000000 5.000000
v 1.000000 0.000000 1.000000
v 1.000000 2.000000 1.000000
v -1.222222 0.000000 1.222222
v -1.444444 0.000000 1.444444
v -1.666667 0.000000 1.666667
v -1.888889 0.000000 1.888889
v -2.111111 0.000000 2.111111
v -2.333333 0.000000 2.333333
v -2.555555 0.000000 2.555556
v -2.777778 0.000000 2.777778
v -3.000000 0.000000 3.000000
v -3.222222 0.000000 3.222222
v -3.444445 0.000000 3.444444
v -3.666667 0.000000 3.666667
v -3.888889 0.000000 3.888889
v -4.111111 0.000000 4.111111
v -4.333333 0.000000 4.333333
v -4.555555 0.000000 4.555555
v -4.777778 0.000000 4.777778
v -4.777778 2.000000 4.777778
v -4.555555 2.000000 4.555555
v -4.333333 2.000000 4.333333
v -4.111111 2.000000 4.111111
v -3.888888 2.000000 3.888889
v -3.666666 2.000000 3.666667
v -3.444444 2.000000 3.444444
v -3.222221 2.000000 3.222222
v -3.000000 2.000000 3.000000
v -2.777778 2.000000 2.777778
v -2.555555 2.000000 2.555556
v -2.333333 2.000000 2.333333
v -2.111111 2.000000 2.111111
v -1.888888 2.000000 1.888889
v -1.666666 2.000000 1.666667
v -1.444444 2.000000 1.444445
v -1.222222 2.000000 1.222222
v -2.777778 0.000000 4.777778
v -2.555555 0.000000 4.555555
v -2.333333 0.000000 4.333333
v -2.111111 0.000000 4.111111
v -1.888888 0.000000 3.888889
v -1.666666 0.000000 3.666667
v -1.444444 0.000000 3.444444
v -1.222222 0.000000 3.222222
v -1.000000 0.000000 3.000000
v -0.777777 0.000000 2.777778
v -0.555555 0.000000 2.555556
v -0.333333 0.000000 2.333333
v -0.111111 0.000000 2.111111
v 0.111112 0.000000 1.888889
v 0.333334 0.000000 1.666667
v 0.555556 0.000000 1.444445
v 0.777778 0.000000 1.222222
v 0.777778 2.000000 1.222222
v 0.555556 2.000000 1.444444
v 0.333333 2.000000 1.666667
v 0.111111 2.000000 1.888889
v -0.111111 2.000000 2.111111
v -0.333333 2.000000 2.333333
v -0.555555 2.000000 2.555556
v -0.777778 2.000000 2.777778
v -1.000000 2.000000 3.000000
v -1.222222 2.000000 3.222222
v -1.444444 2.000000 3.444444
v -1.666667 2.000000 3.666667
v -1.888889 2.000000 3.888889
v -2.111111 2.000000 4.111111
v -2.333333 2.000000 4.333333
v -2.555555 2.000000 4.555555
v -2.777778 2.000000 4.777778
v -1.000000 -0.000000 1.000000
v -1.000000 2.000000 1.000000
v -1.000000 0.000000 -1.000000
v -1.000000 2.000000 -1.000000
v 1.000000 -0.000000 1.000000
v 1.000000 2.000000 1.000000
v 1.000000 0.000000 -1.000000
v 1.000000 2.000000 -1.000000
v -1.000000 0.000000 -4.000000
v -1.000000 2.000000 -4.000000
v 1.000000 0.000000 -4.000000
v 1.000000 2.000000 -4.000000
v -5.000000 -0.000000 1.000000
v -5.000000 2.000000 1.000000
v -5.000000 0.000000 -1.000000
v -5.000000 2.000000 -1.000000
v 5.000000 -0.000000 1.000000
v 5.000000 2.000000 1.000000
v 5.000000 0.000000 -1.000000
v 5.000000 2.000000 -1.000000
v -1.000000 2.000000 1.000000
v -1.000000 0.000000 1.000000
v 3.000000 2.000000 5.000000
v 3.000000 -0.000000 5.000000
v 1.000000 2.000000 1.000000
v 1.000000 0.000000 1.000000
v 5.000000 2.000000 5.000000
v 5.000000 -0.000000 5.000000
v 2.777778 2.000000 4.777778
v 2.555556 2.000000 4.555556
v 2.333333 2.000000 4.333333
v 2.111111 2.000000 4.111111
v 1.888889 2.000000 3.888889
v 1.666667 2.000000 3.666667
v 1.444444 2.000000 3.444445
v 1.222222 2.000000 3.222222
v 1.000000 2.000000 3.000000
v 0.777778 2.000000 2.777778
v 0.555556 2.000000 2.555556
v 0.333333 2.000000 2.333333
v 0.111111 2.000000 2.111111
v -0.111111 2.000000 1.888889
v -0.333333 2.000000 1.666667
v -0.555556 2.000000 1.444445
v -0.777777 2.000000 1.222222
v -0.777777 0.000000 1.222222
v -0.555555 0.000000 1.444444
v -0.333333 0.000000 1.666667
v -0.111110 0.000000 1.888889
v 0.111112 0.000000 2.111111
v 0.333334 0.000000 2.333333
v 0.555556 0.000000 2.555555
v 0.777778 0.000000 2.777778
v 1.000000 0.000000 3.000000
v 1.222223 0.000000 3.222222
v 1.444445 0.000000 3.444444
v 1.666667 0.000000 3.666667
v 1.888889 -0.000000 3.888889
v 2.111112 -0.000000 4.111111
v 2.333334 -0.000000 4.333333
v 2.555556 -0.000000 4.555555
v 2.777778 -0.000000 4.777778
v 1.222223 2.000000 1.222222
v 1.444445 2.000000 1.444445
v 1.666667 2.000000 1.666667
v 1.888890 2.000000 1.888889
v 2.111112 2.000000 2.111111
v 2.333334 2.000000 2.333333
v 2.555556 2.000000 2.555556
v 2.777778 2.000000 2.777778
v 3.000000 2.000000 3.000000
v 3.222223 2.000000 3.222222
v 3.444445 2.000000 3.444444
v 3.666667 2.000000 3.666667
v 3.888889 2.000000 3.888889
v 4.111112 2.000000 4.111111
v 4.333334 2.000000 4.333333
v 4.555556 2.000000 4.555555
v 4.777778 2.000000 4.777778
v 4.777778 -0.000000 4.777778
v 4.555556 -0.000000 4.555555
v 4.333333 -0.000000 4.333333
v 4.111112 -0.000000 4.111111
v 3.888889 -0.000000 3.888889
v 3.666667 0.000000 3.666667
v 3.444445 0.000000 3.444444
v 3.222222 0.000000 3.222222
v 3.000000 0.000000 3.000000
v 2.777778 0.000000 2.777778
v 2.555556 0.000000 2.555556
v 2.333333 0.000000 2.333333
v 2.111111 0.000000 2.111111
v 1.888889 0.000000 1.888889
v 1.666667 0.000000 1.666667
v 1.444445 0.000000 1.444444
v 1.222223 0.000000 1.222222
vn -0.7071 0.0000 -0.7071
vn 0.0000 0.0000 -1.0000
vn 0.7071 0.0000 0.7071
vn 0.0000 0.0000 1.0000
vn 0.0000 -1.0000 0.0000
vn 0.0000 1.0000 0.0000
vn -1.0000 0.0000 0.0000
vn 1.0000 0.0000 0.0000
vn -0.7071 0.0000 0.7071
vn 0.7071 0.0000 -0.7071
usemtl Material
s off
f 9//1 42//1 4//1 3//1
f 3//2 4//2 8//2 7//2
f 43//3 76//3 6//3 5//3
f 5//4 6//4 2//4 1//4
f 25//5 43//5 5//5 1//5
f 76//6 26//6 2//6 6//6
f 8//6 4//6 42//6 60//6
f 60//6 42//6 41//6 61//6
f 61//6 41//6 40//6 62//6
f 62//6 40//6 39//6 63//6
f 63//6 39//6 38//6 64//6
f 64//6 38//6 37//6 65//6
f 65//6 37//6 36//6 66//6
f 66//6 36//6 35//6 67//6
f 67//6 35//6 34//6 68//6
f 68//6 34//6 33//6 69//6
f 69//6 33//6 32//6 70//6
f 70//6 32//6 31//6 71//6
f 71//6 31//6 30//6 72//6
f 72//6 30//6 29//6 73//6
f 73//6 29//6 28//6 74//6
f 74//6 28//6 27//6 75//6
f 75//6 27//6 26//6 76//6
f 3//5 7//5 59//5 9//5
f 9//5 59//5 58//5 10//5
f 10//5 58//5 57//5 11//5
f 11//5 57//5 56//5 12//5
f 12//5 56//5 55//5 13//5
f 13//5 55//5 54//5 14//5
f 14//5 54//5 53//5 15//5
f 15//5 53//5 52//5 16//5
f 16//5 52//5 51//5 17//5
f 17//5 51//5 50//5 18//5
f 18//5 50//5 49//5 19//5
f 19//5 49//5 48//5 20//5
f 20//5 48//5 47//5 21//5
f 21//5 47//5 46//5 22//5
f 22//5 46//5 45//5 23//5
f 23//5 45//5 44//5 24//5
f 24//5 44//5 43//5 25//5
f 7//3 8//3 60//3 59//3
f 59//3 60//3 61//3 58//3
f 58//3 61//3 62//3 57//3
f 57//3 62//3 63//3 56//3
f 56//3 63//3 64//3 55//3
f 55//3 64//3 65//3 54//3
f 54//3 65//3 66//3 53//3
f 53//3 66//3 67//3 52//3
f 52//3 67//3 68//3 51//3
f 51//3 68//3 69//3 50//3
f 50//3 69//3 70//3 49//3
f 49//3 70//3 71//3 48//3
f 48//3 71//3 72//3 47//3
f 47//3 72//3 73//3 46//3
f 46//3 73//3 74//3 45//3
f 45//3 74//3 75//3 44//3
f 44//3 75//3 76//3 43//3
f 1//1 2//1 26//1 25//1
f 25//1 26//1 27//1 24//1
f 24//1 27//1 28//1 23//1
f 23//1 28//1 29//1 22//1
f 22//1 29//1 30//1 21//1
f 21//1 30//1 31//1 20//1
f 20//1 31//1 32//1 19//1
f 19//1 32//1 33//1 18//1
f 18//1 33//1 34//1 17//1
f 17//1 34//1 35//1 16//1
f 16//1 35//1 36//1 15//1
f 15//1 36//1 37//1 14//1
f 14//1 37//1 38//1 13//1
f 13//1 38//1 39//1 12//1
f 12//1 39//1 40//1 11//1
f 11//1 40//1 41//1 10//1
f 10//1 41//1 42//1 9//1
f 80//2 79//2 91//2 92//2
f 80//6 84//6 88//6 86//6
f 82//4 81//4 93//4 94//4
f 81//4 82//4 78//4 77//4
f 79//5 83//5 81//5 77//5
f 84//6 80//6 78//6 82//6
f 85//2 86//2 88//2 87//2
f 79//7 80//7 86//7 85//7
f 84//8 83//8 87//8 88//8
f 83//5 79//5 85//5 87//5
f 89//7 90//7 92//7 91//7
f 77//4 78//4 90//4 89//4
f 78//6 80//6 92//6 90//6
f 79//5 77//5 89//5 91//5
f 95//8 96//8 94//8 93//8
f 81//5 83//5 95//5 93//5
f 84//6 82//6 94//6 96//6
f 83//2 84//2 96//2 95//2
f 105//9 138//9 100//9 99//9
f 99//4 100//4 104//4 103//4
f 139//10 172//10 102//10 101//10
f 101//2 102//2 98//2 97//2
f 121//6 139//6 101//6 97//6
f 172//5 122//5 98//5 102//5
f 104//5 100//5 138//5 156//5
f 156//5 138//5 137//5 157//5
f 157//5 137//5 136//5 158//5
f 158//5 136//5 135//5 159//5
f 159//5 135//5 134//5 160//5
f 160//5 134//5 133//5 161//5
f 161//5 133//5 132//5 162//5
f 162//5 132//5 131//5 163//5
f 163//5 131//5 130//5 164//5
f 164//5 130//5 129//5 165//5
f 165//5 129//5 128//5 166//5
f 166//5 128//5 127//5 167//5
f 167//5 127//5 126//5 168//5
f 168//5 126//5 125//5 169//5
f 169//5 125//5 124//5 170//5
f 170//5 124//5 123//5 171//5
f 171//5 123//5 122//5 172//5
f 99//6 103//6 155//6 105//6
f 105//6 155//6 154//6 106//6
f 106//6 154//6 153//6 107//6
f 107//6 153//6 152//6 108//6
f 108//6 152//6 151//6 109//6
f 109//6 151//6 150//6 110//6
f 110//6 150//6 149//6 111//6
f 111//6 149//6 148//6 112//6
f 112//6 148//6 147//6 113//6
f 113//6 147//6 146//6 114//6
f 114//6 146//6 145//6 115//6
f 115//6 145//6 144//6 116//6
f 116//6 144//6 143//6 117//6
f 117//6 143//6 142//6 118//6
f 118//6 142//6 141//6 119//6
f 119//6 141//6 140//6 120//6
f 120//6 140//6 139//6 121//6
f 103//10 104//10 156//10 155//10
f 155//10 156//10 157//10 154//10
f 154//10 157//10 158//10 153//10
f 153//10 158//10 159//10 152//10
f 152//10 159//10 160//10 151//10
f 151//10 160//10 161//10 150//10
f 150//10 161//10 162//10 149//10
f 149//10 162//10 163//10 148//10
f 148//10 163//10 164//10 147//10
f 147//10 164//10 165//10 146//10
f 146//10 165//10 166//10 145//10
f 145//10 166//10 167//10 144//10
f 144//10 167//10 168//10 143//10
f 143//10 168//10 169//10 142//10
f 142//10 169//10 170//10 141//10
f 141//10 170//10 171//10 140//10
f 140//10 171//10 172//10 139//10
f 97//9 98//9 122//9 121//9
f 121//9 122//9 123//9 120//9
f 120//9 123//9 124//9 119//9
f 119//9 124//9 125//9 118//9
f 118//9 125//9 126//9 117//9
f 117//9 126//9 127//9 116//9
f 116//9 127//9 128//9 115//9
f 115//9 128//9 129//9 114//9
f 114//9 129//9 130//9 113//9
f 113//9 130//9 131//9 112//9
f 112//9 131//9 132//9 111//9
f 111//9 132//9 133//9 110//9
f 110//9 133//9 134//9 109//9
f 109//9 134//9 135//9 108//9
f 108//9 135//9 136//9 107//9
f 107//9 136//9 137//9 106//9
f 106//9 137//9 138//9 105//9
